<svg width="4140" height="2661" viewBox="0 0 4140 2661" fill="none" xmlns="http://www.w3.org/2000/svg">
<rect y="519" width="4140" height="2142" rx="200" fill="url(#paint0_linear)"/>
<path d="M2480.63 653.502C2858.92 930.36 2832.6 1350.31 2892.91 1830.01L2650.04 1864C2839.18 1013.14 2480.63 830.033 2480.63 653.502Z" fill="url(#paint1_linear)"/>
<path d="M2710.71 630.126C2616.31 603.316 2377.89 813.692 2270.49 922.231C2275.8 785.708 2324.83 728.186 2375.87 694.335L2440.35 708.896L2408.31 665.251C2447 613.835 2575.42 571.604 2710.71 630.126Z" fill="url(#paint2_linear)"/>
<path d="M3017.7 536.101C2882.95 480.58 2540.48 413.09 2483.72 754.577C2610.25 647.764 2782.69 580.097 3017.7 536.101Z" fill="url(#paint3_linear)"/>
<path d="M3059 730.897C2963.6 625.344 2688.28 424.706 2485.29 715.47C2645.8 668.554 2829.78 676.188 3059 730.897Z" fill="url(#paint4_linear)"/>
<path d="M2990.7 1045.41C2943.84 900.742 2761.17 588.923 2426.45 804.893C2607.67 820.111 2787.4 899.974 2990.7 1045.41Z" fill="url(#paint5_linear)"/>
<path d="M2116.06 757.591C2181.73 682.19 2371.39 536.565 2511.88 732.861C2401.07 704.317 2274.14 714.107 2116.06 757.591Z" fill="url(#paint6_linear)"/>
<path d="M2226.43 599.947C2280.99 572.953 2421.32 541.587 2452.58 714.793C2397.74 659.735 2324.78 624.107 2226.43 599.947Z" fill="url(#paint7_linear)"/>
<path d="M2526.42 668.664C2462.76 672.456 2318.68 638.88 2379.69 426.308C2401.21 516.044 2449.29 592.616 2526.42 668.664Z" fill="url(#paint8_linear)"/>
<path d="M2370.82 1212.66C2327.62 1082.67 2284.55 759.972 2596.99 743.225C2493.52 848.726 2423.1 1000.62 2370.82 1212.66Z" fill="url(#paint9_linear)"/>
<path d="M2352.37 865.71C2359.86 808.128 2412.62 679.795 2582.92 744.833C2503.08 760.005 2429.94 799.747 2352.37 865.71Z" fill="url(#paint10_linear)"/>
<path d="M2746.08 463.14C2699.41 454.313 2587.35 465.82 2600.22 630.308C2629.88 565.321 2677.24 512.667 2746.08 463.14Z" fill="url(#paint11_linear)"/>
<path d="M2522.41 748.158C2564.61 697.34 2691.69 604.014 2807.65 760.197C2725.25 730.554 2633.91 728.071 2522.41 748.158Z" fill="url(#paint12_linear)"/>
<path d="M2511.54 757.869C2578.5 758.235 2729.97 796.684 2665.47 982.784C2642.98 901.438 2592.54 830.276 2511.54 757.869Z" fill="url(#paint13_linear)"/>
<path d="M2512.11 789.481C2476.05 689.64 2708.54 426.004 2829.3 306.666C2670.72 317.982 2606.31 372.795 2569.56 428.777L2589.82 497.12L2537.39 464.663C2479.56 508.159 2437.04 647.229 2512.11 789.481Z" fill="url(#paint14_linear)"/>
<path d="M2651 1169.41C2563.2 1098.98 2573.05 804.989 2588.96 666.799C2478.93 728.388 2465.03 794.805 2472.24 853.076L2529.09 902.747L2470.51 893.265C2454.53 948.186 2508.42 1076.86 2651 1169.41Z" fill="url(#paint15_linear)"/>
<path d="M3383.81 498.586C2904.6 819.897 2937.94 1307.27 2861.54 1864H3056.97C3006.99 785.944 3383.81 703.462 3383.81 498.586Z" fill="url(#paint16_linear)"/>
<path d="M3605.03 561.398C3539.63 470.168 3181.55 511.92 3010.68 544.199C3110.12 414.242 3193.66 391.706 3262.56 393.719L3309.82 452.357L3311.6 387.586C3381.69 363.903 3525.26 410.984 3605.03 561.398Z" fill="url(#paint17_linear)"/>
<path d="M3943.41 680.724C3862.04 533.624 3604.15 231.799 3316.72 526.92C3503.4 509.496 3703.78 561.99 3943.41 680.724Z" fill="url(#paint18_linear)"/>
<path d="M3845.01 899.8C3833.36 730.82 3727.59 344.916 3345.25 489.733C3520.61 554.316 3679.01 688.451 3845.01 899.8Z" fill="url(#paint19_linear)"/>
<path d="M3566.03 1160.58C3624.7 986.737 3678.51 555.811 3230.85 536.734C3381.54 676.39 3486.04 878.282 3566.03 1160.58Z" fill="url(#paint20_linear)"/>
<path d="M2987.5 276.757C3098.24 248.172 3368.03 236.228 3356.84 525.057C3278.05 420.832 3158.32 343.027 2987.5 276.757Z" fill="url(#paint21_linear)"/>
<path d="M2898.45 897.502C2950.19 740.554 3135.76 395.082 3425.38 593.791C3260.11 625.807 3092.07 725.982 2898.45 897.502Z" fill="url(#paint22_linear)"/>
<path d="M3122.74 545.253C3169.36 494.056 3305.34 404.784 3411.75 585.683C3330.17 545.56 3237.53 534.105 3122.74 545.253Z" fill="url(#paint23_linear)"/>
<path d="M3752.36 422.326C3716.95 381.557 3609.26 315.67 3506.59 485.509C3578.07 442.325 3656.74 423.401 3752.36 422.326Z" fill="url(#paint24_linear)"/>
<path d="M3355.59 547.272C3428.4 526.595 3606.22 522.749 3601.04 755.429C3548.29 669.689 3468.74 604.378 3355.59 547.272Z" fill="url(#paint25_linear)"/>
<path d="M3339.19 549.297C3398.51 595.751 3506.61 737.663 3320.1 875.386C3356.53 780.292 3361.02 675.921 3339.19 549.297Z" fill="url(#paint26_linear)"/>
<path d="M3317.76 580.625C3354.94 458.087 3744.72 360.138 3934.96 326.48C3786.01 228.38 3690.68 237.685 3619.13 267.167L3589.75 348.005L3565.61 280.141C3483.98 282.895 3349.66 389.725 3317.76 580.625Z" fill="url(#paint27_linear)"/>
<path d="M3177.74 1048.07C3148.49 918.689 3361.23 637.759 3471.26 513.468C3330.63 497.993 3272.18 553.424 3238.17 615.415L3254.29 703.164L3208.75 653.558C3156.42 696.3 3115.1 859.338 3177.74 1048.07Z" fill="url(#paint28_linear)"/>
<path d="M3297.63 840.075C3241.59 806.305 3148.61 685.855 3370.03 500.058C3315.91 606.51 3294.47 714.957 3297.63 840.075Z" fill="url(#paint29_linear)"/>
<path d="M3651.12 469.607C3636.3 422.046 3569.85 325.865 3421.05 428.258C3497.07 419.587 3570.24 433.909 3651.12 469.607Z" fill="url(#paint30_linear)"/>
<path d="M3750.54 961.702C3724.78 803.285 3454.23 567.534 3322.18 469.461C3425.62 396.801 3491.8 436.867 3541.46 493.953L3561.82 599.932L3578.61 525.753C3635.28 553.801 3728.48 722.795 3750.54 961.702Z" fill="url(#paint31_linear)"/>
<path d="M3000.55 1799.91C3249.05 1847.69 3169.49 1908.79 3074.66 1947.68C3019.38 1970.35 3142.53 2002.19 3183.66 2007.67C3766.79 2085.44 3310.1 2285.42 3074.66 2284.31C2951.84 2283.73 2794.56 2353.19 2960.22 2406.52C3112.09 2455.41 3052.75 2498.51 2956.96 2528.73C2636.52 2629.83 1983.64 2606.5 2114.43 2482.07C2259.24 2344.3 2015.26 2360.63 1914.97 2366.52L1911.06 2366.75C1738.88 2376.89 1343.48 2400.15 1296.97 2294.31C1257.93 2205.49 1614.15 2117.66 1780.9 2135.44C1919.32 2150.19 1967.91 2092.89 1911.69 2058.78C1631.57 1888.79 2175.46 1926.57 2260.47 1947.68C2368.62 1974.53 2333.5 1905.46 2283.36 1876.57C2263.23 1864.97 2199.44 1848.8 2210.33 1803.25C2232.16 1712.03 2726.89 1747.31 3000.55 1799.91Z" fill="url(#paint32_linear)"/>
<path d="M3714 1473.26V2101.48H3553V1473.26C3553 1359.48 3714 1370.48 3714 1473.26Z" fill="url(#paint33_linear)"/>
<path d="M3729.38 1615.94C3729.38 1508.94 3878.5 1512.44 3878.5 1615.94V1814.43C3878.5 1893 3814.81 1956.68 3736.25 1956.68H3674.5C3630.04 1956.68 3594 1920.64 3594 1876.18V1863.37C3594 1825.99 3624.31 1795.68 3661.69 1795.68C3699.07 1795.68 3729.38 1765.38 3729.38 1727.99L3729.38 1615.94Z" fill="url(#paint34_linear)"/>
<path d="M3536.33 1532C3536.33 1424.92 3399 1428.42 3399 1532V1742C3399 1814.35 3457.65 1873 3530 1873H3580.44C3624.93 1873 3661 1836.93 3661 1792.44V1774.21C3661 1739.79 3633.09 1711.88 3598.66 1711.88C3564.24 1711.88 3536.33 1683.97 3536.33 1649.54L3536.33 1532Z" fill="url(#paint35_linear)"/>
<rect x="3676" y="1498" width="60" height="39" rx="19.5" fill="#4F884F" fill-opacity="0.16"/>
<rect x="3849" y="1682" width="60" height="39" rx="19.5" fill="#4F884F" fill-opacity="0.16"/>
<rect x="3784" y="1747" width="60" height="39" rx="19.5" fill="#4F884F" fill-opacity="0.16"/>
<rect x="3841.58" y="1857.5" width="60" height="39" rx="19.5" transform="rotate(45 3841.58 1857.5)" fill="#4F884F" fill-opacity="0.16"/>
<rect x="3756.58" y="1840" width="60" height="39" rx="19.5" transform="rotate(45 3756.58 1840)" fill="#4F884F" fill-opacity="0.16"/>
<rect x="3445" y="1840.43" width="60" height="39" rx="19.5" transform="rotate(-45 3445 1840.43)" fill="#4F884F" fill-opacity="0.16"/>
<rect x="3646" y="1662" width="60" height="39" rx="19.5" fill="#4F884F" fill-opacity="0.16"/>
<rect x="3369" y="1727" width="60" height="39" rx="19.5" fill="#4F884F" fill-opacity="0.16"/>
<rect x="3455" y="1688" width="60" height="39" rx="19.5" fill="#4F884F" fill-opacity="0.16"/>
<rect x="3493" y="1537" width="60" height="39" rx="19.5" fill="#4F884F" fill-opacity="0.16"/>
<rect x="3544" y="1813" width="60" height="39" rx="19.5" fill="#4F884F" fill-opacity="0.16"/>
<rect x="3676" y="1928" width="60" height="39" rx="19.5" fill="#4F884F" fill-opacity="0.16"/>
<rect x="3385" y="1597" width="60" height="39" rx="19.5" fill="#4F884F" fill-opacity="0.16"/>
<rect x="3544" y="1643" width="60" height="39" rx="19.5" fill="#4F884F" fill-opacity="0.16"/>
<rect x="3574" y="1577" width="60" height="39" rx="19.5" fill="#4F884F" fill-opacity="0.16"/>
<defs>
<linearGradient id="paint0_linear" x1="4140" y1="2661" x2="-6.88745e-05" y2="519" gradientUnits="userSpaceOnUse">
<stop stop-color="#D3CB00"/>
<stop offset="1" stop-color="#D3CB00" stop-opacity="0"/>
</linearGradient>
<linearGradient id="paint1_linear" x1="2943" y1="1762" x2="2481" y2="533.5" gradientUnits="userSpaceOnUse">
<stop stop-color="#C5986B"/>
<stop offset="1" stop-color="#C5986B" stop-opacity="0"/>
</linearGradient>
<linearGradient id="paint2_linear" x1="2310.25" y1="732.312" x2="2655.05" y2="828.874" gradientUnits="userSpaceOnUse">
<stop stop-color="#64AA64"/>
<stop offset="1" stop-color="#64AA64" stop-opacity="0"/>
</linearGradient>
<linearGradient id="paint3_linear" x1="2802.33" y1="474.702" x2="2714.01" y2="814.443" gradientUnits="userSpaceOnUse">
<stop stop-color="#64AA64"/>
<stop offset="1" stop-color="#64AA64" stop-opacity="0"/>
</linearGradient>
<linearGradient id="paint4_linear" x1="2894.32" y1="587.305" x2="2664.6" y2="864.216" gradientUnits="userSpaceOnUse">
<stop stop-color="#64AA64"/>
<stop offset="1" stop-color="#64AA64" stop-opacity="0"/>
</linearGradient>
<linearGradient id="paint5_linear" x1="2892.19" y1="834.929" x2="2531.61" y2="1015.22" gradientUnits="userSpaceOnUse">
<stop stop-color="#64AA64"/>
<stop offset="1" stop-color="#64AA64" stop-opacity="0"/>
</linearGradient>
<linearGradient id="paint6_linear" x1="2229.47" y1="654.163" x2="2390" y2="838.817" gradientUnits="userSpaceOnUse">
<stop stop-color="#64AA64"/>
<stop offset="1" stop-color="#64AA64" stop-opacity="0"/>
</linearGradient>
<linearGradient id="paint7_linear" x1="2314.25" y1="570.632" x2="2365.75" y2="741.035" gradientUnits="userSpaceOnUse">
<stop stop-color="#64AA64"/>
<stop offset="1" stop-color="#64AA64" stop-opacity="0"/>
</linearGradient>
<linearGradient id="paint8_linear" x1="2431.25" y1="658.676" x2="2462.21" y2="437.881" gradientUnits="userSpaceOnUse">
<stop stop-color="#64AA64"/>
<stop offset="1" stop-color="#64AA64" stop-opacity="0"/>
</linearGradient>
<linearGradient id="paint9_linear" x1="2326.55" y1="1007.74" x2="2636.44" y2="948.051" gradientUnits="userSpaceOnUse">
<stop stop-color="#64AA64"/>
<stop offset="1" stop-color="#64AA64" stop-opacity="0"/>
</linearGradient>
<linearGradient id="paint10_linear" x1="2376.86" y1="780.365" x2="2553.33" y2="837.019" gradientUnits="userSpaceOnUse">
<stop stop-color="#64AA64"/>
<stop offset="1" stop-color="#64AA64" stop-opacity="0"/>
</linearGradient>
<linearGradient id="paint11_linear" x1="2673.92" y1="461.637" x2="2676.24" y2="629.256" gradientUnits="userSpaceOnUse">
<stop stop-color="#64AA64"/>
<stop offset="1" stop-color="#64AA64" stop-opacity="0"/>
</linearGradient>
<linearGradient id="paint12_linear" x1="2597.22" y1="680.241" x2="2725.7" y2="830.34" gradientUnits="userSpaceOnUse">
<stop stop-color="#64AA64"/>
<stop offset="1" stop-color="#64AA64" stop-opacity="0"/>
</linearGradient>
<linearGradient id="paint13_linear" x1="2611.62" y1="772.388" x2="2577.48" y2="967.382" gradientUnits="userSpaceOnUse">
<stop stop-color="#64AA64"/>
<stop offset="1" stop-color="#64AA64" stop-opacity="0"/>
</linearGradient>
<linearGradient id="paint14_linear" x1="2610.36" y1="357.028" x2="2720.3" y2="727.739" gradientUnits="userSpaceOnUse">
<stop stop-color="#64AA64"/>
<stop offset="1" stop-color="#64AA64" stop-opacity="0"/>
</linearGradient>
<linearGradient id="paint15_linear" x1="2458.35" y1="780.47" x2="2752.17" y2="1064.92" gradientUnits="userSpaceOnUse">
<stop stop-color="#64AA64"/>
<stop offset="1" stop-color="#64AA64" stop-opacity="0"/>
</linearGradient>
<linearGradient id="paint16_linear" x1="2903.93" y1="1920.06" x2="3319.57" y2="551.913" gradientUnits="userSpaceOnUse">
<stop stop-color="#C5986B"/>
<stop offset="1" stop-color="#C5986B" stop-opacity="0"/>
</linearGradient>
<linearGradient id="paint17_linear" x1="3177.82" y1="385.703" x2="3439.32" y2="699.495" gradientUnits="userSpaceOnUse">
<stop stop-color="#64AA64"/>
<stop offset="1" stop-color="#64AA64" stop-opacity="0"/>
</linearGradient>
<linearGradient id="paint18_linear" x1="3794.38" y1="472.363" x2="3463.16" y2="721.564" gradientUnits="userSpaceOnUse">
<stop stop-color="#64AA64"/>
<stop offset="1" stop-color="#64AA64" stop-opacity="0"/>
</linearGradient>
<linearGradient id="paint19_linear" x1="3798.1" y1="645.893" x2="3395.61" y2="730.185" gradientUnits="userSpaceOnUse">
<stop stop-color="#64AA64"/>
<stop offset="1" stop-color="#64AA64" stop-opacity="0"/>
</linearGradient>
<linearGradient id="paint20_linear" x1="3624.41" y1="886.771" x2="3180.69" y2="803.272" gradientUnits="userSpaceOnUse">
<stop stop-color="#64AA64"/>
<stop offset="1" stop-color="#64AA64" stop-opacity="0"/>
</linearGradient>
<linearGradient id="paint21_linear" x1="3160.17" y1="253.614" x2="3191.64" y2="543.019" gradientUnits="userSpaceOnUse">
<stop stop-color="#64AA64"/>
<stop offset="1" stop-color="#64AA64" stop-opacity="0"/>
</linearGradient>
<linearGradient id="paint22_linear" x1="3001.23" y1="666.485" x2="3320.62" y2="816.63" gradientUnits="userSpaceOnUse">
<stop stop-color="#64AA64"/>
<stop offset="1" stop-color="#64AA64" stop-opacity="0"/>
</linearGradient>
<linearGradient id="paint23_linear" x1="3203.75" y1="478.594" x2="3333.44" y2="646.255" gradientUnits="userSpaceOnUse">
<stop stop-color="#64AA64"/>
<stop offset="1" stop-color="#64AA64" stop-opacity="0"/>
</linearGradient>
<linearGradient id="paint24_linear" x1="3689.19" y1="371.176" x2="3568.52" y2="531.981" gradientUnits="userSpaceOnUse">
<stop stop-color="#64AA64"/>
<stop offset="1" stop-color="#64AA64" stop-opacity="0"/>
</linearGradient>
<linearGradient id="paint25_linear" x1="3469.28" y1="532.312" x2="3492.82" y2="766.312" gradientUnits="userSpaceOnUse">
<stop stop-color="#64AA64"/>
<stop offset="1" stop-color="#64AA64" stop-opacity="0"/>
</linearGradient>
<linearGradient id="paint26_linear" x1="3418.16" y1="632.402" x2="3242.91" y2="789.008" gradientUnits="userSpaceOnUse">
<stop stop-color="#64AA64"/>
<stop offset="1" stop-color="#64AA64" stop-opacity="0"/>
</linearGradient>
<linearGradient id="paint27_linear" x1="3705.22" y1="225.041" x2="3545.83" y2="663.528" gradientUnits="userSpaceOnUse">
<stop stop-color="#64AA64"/>
<stop offset="1" stop-color="#64AA64" stop-opacity="0"/>
</linearGradient>
<linearGradient id="paint28_linear" x1="3276.18" y1="534.797" x2="3371.4" y2="1009.21" gradientUnits="userSpaceOnUse">
<stop stop-color="#64AA64"/>
<stop offset="1" stop-color="#64AA64" stop-opacity="0"/>
</linearGradient>
<linearGradient id="paint29_linear" x1="3226.42" y1="773.241" x2="3436.66" y2="568.48" gradientUnits="userSpaceOnUse">
<stop stop-color="#64AA64"/>
<stop offset="1" stop-color="#64AA64" stop-opacity="0"/>
</linearGradient>
<linearGradient id="paint30_linear" x1="3616.74" y1="402.761" x2="3457.03" y2="492.384" gradientUnits="userSpaceOnUse">
<stop stop-color="#64AA64"/>
<stop offset="1" stop-color="#64AA64" stop-opacity="0"/>
</linearGradient>
<linearGradient id="paint31_linear" x1="3481.71" y1="417.277" x2="3592.17" y2="992.133" gradientUnits="userSpaceOnUse">
<stop stop-color="#64AA64"/>
<stop offset="1" stop-color="#64AA64" stop-opacity="0"/>
</linearGradient>
<linearGradient id="paint32_linear" x1="2752.5" y1="1899.5" x2="2040.5" y2="2592" gradientUnits="userSpaceOnUse">
<stop stop-color="#ADD8E6"/>
<stop offset="1" stop-color="#ADD8E6" stop-opacity="0"/>
</linearGradient>
<linearGradient id="paint33_linear" x1="3633.5" y1="1392" x2="3633.5" y2="2101.48" gradientUnits="userSpaceOnUse">
<stop stop-color="#64AA64"/>
<stop offset="1" stop-color="#64AA64" stop-opacity="0"/>
</linearGradient>
<linearGradient id="paint34_linear" x1="3878.5" y1="1746.84" x2="3594" y2="1746.84" gradientUnits="userSpaceOnUse">
<stop stop-color="#64AA64"/>
<stop offset="1" stop-color="#64AA64" stop-opacity="0"/>
</linearGradient>
<linearGradient id="paint35_linear" x1="3399" y1="1663" x2="3661" y2="1663" gradientUnits="userSpaceOnUse">
<stop stop-color="#64AA64"/>
<stop offset="1" stop-color="#64AA64" stop-opacity="0"/>
</linearGradient>
</defs>
</svg>
