<svg width="50" height="50" viewBox="0 0 302 332" fill="none" xmlns="http://www.w3.org/2000/svg">
<path d="M292 329V162.686C292 151.64 283.046 142.686 272 142.686H93.0594M93.0594 142.686C93.0594 197.5 10 196 10 142.686C10 89.3717 93.0594 87.8717 93.0594 142.686Z" stroke="#ACA9A9" stroke-width="20"/>
<path d="M234.491 332V245.75M234.491 159.5V245.75M234.491 245.75L178.217 224.776C166.479 220.401 158.694 209.193 158.694 196.665V71.5M158.694 71.5C195.003 71.5 191.503 15 158.694 15C116.895 15 122.383 71.5 158.694 71.5Z" stroke="#4A6EA4" stroke-width="30"/>
<path d="M234 126V56" stroke="#4A6EA4" stroke-width="30"/>
</svg>
