<svg width="50" height="50" viewBox="0 0 310 321" fill="none" xmlns="http://www.w3.org/2000/svg">
<path d="M97.9249 265.567L124.769 234.721C128.568 230.356 134.07 227.85 139.856 227.85H280C291.046 227.85 300 218.896 300 207.85V30C300 18.9543 291.046 10 280 10H30C18.9543 10 10 18.9543 10 30V207.85C10 218.896 18.9543 227.85 30 227.85H50.5273C61.9815 227.85 70.3814 238.622 67.5903 249.731C63.0813 267.677 85.7771 279.526 97.9249 265.567Z" stroke="#ACA9A9" stroke-width="20"/>
<path d="M140.657 183.288C39.4392 82.2081 96.9125 37.6127 136.332 54.348C147.376 59.0364 161.545 60.3909 172.432 55.349C219.686 33.4646 274.017 79.2348 167.285 183.419C159.867 190.66 147.992 190.613 140.657 183.288Z" stroke="#AE5252" stroke-width="30"/>
</svg>
