<svg width="762" height="167" viewBox="0 0 762 167" fill="none" xmlns="http://www.w3.org/2000/svg">
<path d="M116.543 167H85.8691L40.5176 87.3711V167H9.66797V39.0312H40.5176L85.7812 118.66V39.0312H116.543V167ZM355.869 39.0312L384.434 128.064L412.91 39.0312H453.516V167H422.578V137.117L425.566 75.9453L394.629 167H374.238L343.213 75.8574L346.201 137.117V167H315.352V39.0312H355.869ZM547.471 143.094H505.195L497.812 167H464.854L511.787 39.0312H540.791L588.076 167H554.941L547.471 143.094ZM512.578 119.275H540.088L526.289 74.8906L512.578 119.275ZM597.48 167V39.0312H638.701C650.01 39.0312 660.176 41.6094 669.199 46.7656C678.223 51.8633 685.254 59.0996 690.293 68.4746C695.391 77.791 697.969 88.25 698.027 99.8516V105.74C698.027 117.459 695.537 127.977 690.557 137.293C685.635 146.551 678.662 153.816 669.639 159.09C660.674 164.305 650.654 166.941 639.58 167H597.48ZM628.33 62.8496V143.27H639.053C647.9 143.27 654.697 140.135 659.443 133.865C664.189 127.537 666.562 118.162 666.562 105.74V100.203C666.562 87.8398 664.189 78.5234 659.443 72.2539C654.697 65.9844 647.783 62.8496 638.701 62.8496H628.33Z" fill="white"/>
<rect x="276" y="144" width="23" height="23" fill="white"/>
</svg>
