<svg width="1464" height="768" viewBox="0 0 1464 768" fill="none" xmlns="http://www.w3.org/2000/svg">
<path d="M65.1 734C45.7148 734 29.9084 718.273 30.8767 698.912C38.5887 544.714 96.9496 397.311 196.884 279.626C209.432 264.849 231.72 264.205 245.851 277.475C259.982 290.746 260.595 312.901 248.13 327.747C160.325 432.32 108.753 562.577 101.174 698.914C100.098 718.269 84.4852 734 65.1 734Z" fill="#AE5252"/>
<path d="M260.43 262.431C246.723 248.723 246.667 226.426 261.042 213.42C375.53 109.839 521.027 46.8764 674.907 34.3248C694.228 32.7488 710.443 48.0535 711.052 67.4291C711.661 86.8047 696.429 102.904 677.117 104.588C541.085 116.445 412.512 172.083 310.748 263.129C296.301 276.055 274.138 276.138 260.43 262.431Z" fill="#AE5252" fill-opacity="0.5"/>
<path d="M732 67.1C732 47.7148 747.727 31.9084 767.088 32.8767C921.286 40.5887 1068.69 98.9495 1186.37 198.884C1201.15 211.432 1201.79 233.72 1188.52 247.851C1175.25 261.982 1153.1 262.595 1138.25 250.13C1033.68 162.325 903.423 110.753 767.086 103.174C747.731 102.098 732 86.4852 732 67.1Z" fill="#618843" fill-opacity="0.5"/>
<path d="M1203.57 262.43C1217.28 248.723 1239.57 248.667 1252.58 263.042C1356.16 377.53 1419.12 523.026 1431.68 676.907C1433.25 696.228 1417.95 712.443 1398.57 713.052C1379.2 713.661 1363.1 698.428 1361.41 679.116C1349.56 543.085 1293.92 414.512 1202.87 312.748C1189.95 298.301 1189.86 276.138 1203.57 262.43Z" fill="#458843"/>
</svg>
